<?xml version="1.0" encoding="UTF-8"?>
<svg id="Camada_1" data-name="Camada 1" xmlns="http://www.w3.org/2000/svg" version="1.1" viewBox="0 0 22 22">
  <defs>
    <style>
      .cls-1 {
        fill: #1d9bf0;
      }

      .cls-1, .cls-2 {
        stroke-width: 0px;
      }

      .cls-2 {
        fill: #ff4c4c;
      }
    </style>
  </defs>
  <path class="cls-1" d="M18,11c0-.5-.2-.9-.4-1.4-.3-.4-.6-.7-1.1-.9.2-.5.2-.9.1-1.4,0-.5-.3-.9-.7-1.3-.4-.3-.8-.6-1.3-.7-.5,0-1,0-1.4.1-.2-.4-.5-.8-.9-1.1s-.9-.4-1.4-.4c-.5,0-.9.2-1.4.4s-.7.6-.9,1.1c-.5-.2-.9-.2-1.4-.1-.5,0-.9.3-1.3.7-.3.4-.6.8-.7,1.3,0,.5,0,1,.1,1.4-.4.2-.8.5-1.1.9s-.4.9-.4,1.4c0,.5.2,1,.4,1.4.3.4.6.7,1.1.9-.2.5-.2.9-.1,1.4,0,.5.3.9.7,1.3.4.3.8.6,1.3.7.5,0,1,0,1.4-.1.2.4.5.8.9,1.1.4.3.9.4,1.4.4.5,0,1-.2,1.4-.4s.7-.6.9-1.1c.4.2.9.2,1.4.1.5,0,.9-.3,1.3-.7.3-.3.6-.8.7-1.3s0-1-.1-1.4c.4-.2.8-.5,1.1-.9.3-.4.4-.9.4-1.4ZM10,13.9l-2.6-2.6,1-1,1.5,1.5,3.3-3.6,1,.9-4.2,4.6Z"/>
  <path class="cls-2" d="M11,.1C5,.1.1,5,.1,11s4.9,10.9,10.9,10.9,10.9-4.9,10.9-10.9S17,.1,11,.1ZM2.7,11c0-2,.7-3.8,1.8-5.2l11,12.1c-1.3.9-2.9,1.3-4.5,1.3-4.6,0-8.3-3.7-8.3-8.3ZM17.4,16.2L6.5,4.1c1.3-.9,2.9-1.3,4.5-1.3,4.6,0,8.3,3.7,8.3,8.3s-.7,3.8-1.8,5.2Z"/>
</svg>